<svg width="22" height="23" viewBox="0 0 22 23" fill="none" xmlns="http://www.w3.org/2000/svg">
<path d="M2.02378 1.9845L3.53186 1.12935C4.21828 0.739718 5.02304 0.613196 5.7959 0.773406C6.56877 0.933615 7.25692 1.36961 7.73189 1.99999L9.24808 4.01222C9.65659 4.55429 9.88514 5.21065 9.90164 5.88921C9.91815 6.56777 9.72179 7.23447 9.34011 7.79576L7.95257 9.83665C7.93543 9.8619 7.92306 9.89008 7.91607 9.91979C7.81723 10.3381 8.32539 11.2799 9.54705 12.6002C10.9247 14.0881 11.8419 14.5915 12.1722 14.4068L14.3219 13.1752C14.9107 12.8384 15.5902 12.6942 16.265 12.7629C16.9399 12.8316 17.5763 13.1098 18.0852 13.5585L19.9669 15.216C20.5577 15.7364 20.9394 16.4536 21.0413 17.2343C21.1431 18.015 20.958 18.8062 20.5205 19.4607L19.5534 20.9057C19.2173 21.4087 18.7644 21.8228 18.2335 22.1128C17.7026 22.4028 17.1094 22.5601 16.5045 22.5712C12.9127 22.6361 9.21289 20.5721 5.39237 16.4456C1.57021 12.3164 -0.203915 8.46358 0.142328 4.88509C0.20027 4.28599 0.401568 3.70965 0.729212 3.20475C1.05686 2.69985 1.50024 2.28146 2.02378 1.9845ZM2.76594 3.28854C2.45179 3.46667 2.18514 3.7178 1.98851 4.02072C1.79189 4.32363 1.67106 4.66942 1.63625 5.02887C1.33762 8.11254 2.93426 11.5811 6.49404 15.4263C10.0512 19.2691 13.3834 21.1274 16.4786 21.0706C16.8415 21.0639 17.1974 20.9694 17.5159 20.7953C17.8344 20.6212 18.106 20.3727 18.3077 20.0708L19.274 18.627C19.5097 18.2746 19.6095 17.8486 19.5547 17.4282C19.5 17.0078 19.2945 16.6215 18.9764 16.3412L17.0945 14.6827C16.8206 14.4412 16.4779 14.2914 16.1146 14.2544C15.7513 14.2174 15.3855 14.2949 15.0685 14.4762L12.9134 15.711C11.7186 16.3833 10.2708 15.5891 8.44711 13.618C6.90258 11.9506 6.2035 10.6511 6.45757 9.57518C6.50672 9.36713 6.59324 9.17009 6.71304 8.99317L8.10058 6.95228C8.3062 6.65003 8.41201 6.29098 8.40315 5.92552C8.39429 5.56007 8.27121 5.20657 8.05118 4.91464L6.53424 2.9036C6.27847 2.56407 5.90785 2.32924 5.49161 2.24297C5.07536 2.1567 4.64194 2.22489 4.2723 2.43481L2.76594 3.28854Z" fill="#9E9E9E"/>
</svg>
