<svg width="13" height="13" viewBox="0 0 13 13" fill="none" xmlns="http://www.w3.org/2000/svg">
<path d="M11.8164 2.514C11.7677 2.45841 11.7081 2.41347 11.6413 2.38198C11.5744 2.35049 11.5018 2.33314 11.4279 2.331C10.2804 2.301 8.82841 1.074 7.86841 0.592503C7.27541 0.296003 6.88391 0.100503 6.58991 0.0490033C6.53021 0.0403045 6.46956 0.040473 6.40991 0.0495033C6.11591 0.101003 5.72441 0.296503 5.13191 0.593003C4.17191 1.074 2.71991 2.301 1.57241 2.331C1.4985 2.33325 1.42583 2.35065 1.35892 2.38212C1.292 2.4136 1.23227 2.45849 1.18341 2.514C1.08215 2.62857 1.0299 2.77831 1.03791 2.931C1.28441 7.9425 3.08191 11.044 6.23591 12.8465C6.31791 12.893 6.40891 12.917 6.49941 12.917C6.58991 12.917 6.68091 12.893 6.76341 12.8465C9.91741 11.044 11.7144 7.9425 11.9614 2.931C11.9699 2.77833 11.9178 2.62848 11.8164 2.514ZM9.30841 4.485L6.64691 8.4125C6.55141 8.5535 6.40141 8.647 6.25291 8.647C6.10391 8.647 5.93841 8.5655 5.83391 8.461L3.95791 6.5845C3.89666 6.52303 3.86227 6.43978 3.86227 6.353C3.86227 6.26622 3.89666 6.18298 3.95791 6.1215L4.42141 5.657C4.48302 5.596 4.56621 5.56177 4.65291 5.56177C4.73961 5.56177 4.82281 5.596 4.88441 5.657L6.10441 6.877L8.22391 3.7485C8.27295 3.67691 8.34832 3.62763 8.43357 3.61143C8.51882 3.59522 8.60702 3.6134 8.67891 3.662L9.22141 4.03C9.29308 4.07897 9.34246 4.1543 9.35877 4.23956C9.37507 4.32481 9.35696 4.41305 9.30841 4.485Z" fill="#0057FF"/>
</svg>
